<?xml version="1.0" encoding="UTF-8"?>
<svg xmlns="http://www.w3.org/2000/svg" xmlns:xlink="http://www.w3.org/1999/xlink" width="1920" height="1080" viewBox="0 0 1920 1080">
<defs>
<g>
<g id="glyph-0-0">
<path d="M 2.800781 0 L 2.046875 0 C 1.898438 -0.226562 1.738281 -0.449219 1.558594 -0.671875 C 1.382812 -0.894531 1.195312 -1.109375 1 -1.316406 L 0.953125 -1.316406 L 0.953125 -0.378906 C 0.953125 -0.339844 0.960938 -0.300781 0.976562 -0.269531 C 0.992188 -0.234375 1.019531 -0.207031 1.0625 -0.1875 C 1.082031 -0.179688 1.121094 -0.167969 1.175781 -0.15625 C 1.230469 -0.144531 1.277344 -0.136719 1.3125 -0.136719 L 1.3125 0 L 0.195312 0 L 0.195312 -0.136719 C 0.222656 -0.136719 0.265625 -0.140625 0.320312 -0.144531 C 0.375 -0.152344 0.414062 -0.160156 0.4375 -0.167969 C 0.476562 -0.183594 0.503906 -0.210938 0.519531 -0.242188 C 0.539062 -0.273438 0.546875 -0.3125 0.546875 -0.359375 L 0.546875 -2.304688 C 0.546875 -2.347656 0.539062 -2.382812 0.523438 -2.414062 C 0.511719 -2.449219 0.480469 -2.472656 0.4375 -2.492188 C 0.40625 -2.511719 0.363281 -2.523438 0.316406 -2.539062 C 0.269531 -2.550781 0.230469 -2.558594 0.195312 -2.558594 L 0.195312 -2.695312 L 1.3125 -2.695312 L 1.3125 -2.558594 C 1.277344 -2.558594 1.234375 -2.554688 1.179688 -2.542969 C 1.125 -2.53125 1.085938 -2.523438 1.0625 -2.515625 C 1.019531 -2.5 0.988281 -2.472656 0.972656 -2.4375 C 0.960938 -2.402344 0.953125 -2.363281 0.953125 -2.324219 L 0.953125 -1.390625 L 0.988281 -1.390625 C 1.101562 -1.488281 1.214844 -1.589844 1.324219 -1.691406 C 1.4375 -1.796875 1.535156 -1.902344 1.625 -2.003906 C 1.726562 -2.121094 1.796875 -2.210938 1.84375 -2.28125 C 1.890625 -2.351562 1.914062 -2.410156 1.914062 -2.464844 C 1.914062 -2.484375 1.902344 -2.5 1.878906 -2.511719 C 1.855469 -2.523438 1.828125 -2.535156 1.796875 -2.539062 C 1.761719 -2.546875 1.730469 -2.554688 1.703125 -2.554688 C 1.675781 -2.558594 1.652344 -2.558594 1.636719 -2.558594 L 1.636719 -2.695312 L 2.644531 -2.695312 L 2.644531 -2.558594 C 2.640625 -2.558594 2.632812 -2.558594 2.621094 -2.558594 C 2.609375 -2.558594 2.59375 -2.554688 2.578125 -2.554688 C 2.558594 -2.554688 2.542969 -2.550781 2.523438 -2.546875 C 2.507812 -2.542969 2.484375 -2.539062 2.457031 -2.535156 C 2.410156 -2.523438 2.367188 -2.507812 2.316406 -2.484375 C 2.269531 -2.460938 2.230469 -2.433594 2.203125 -2.402344 C 2.070312 -2.253906 1.933594 -2.101562 1.792969 -1.941406 C 1.652344 -1.785156 1.511719 -1.640625 1.371094 -1.507812 C 1.566406 -1.292969 1.726562 -1.105469 1.851562 -0.949219 C 1.976562 -0.789062 2.109375 -0.621094 2.253906 -0.445312 C 2.308594 -0.375 2.359375 -0.320312 2.414062 -0.28125 C 2.46875 -0.238281 2.515625 -0.207031 2.554688 -0.1875 C 2.589844 -0.171875 2.628906 -0.160156 2.679688 -0.148438 C 2.726562 -0.140625 2.769531 -0.136719 2.800781 -0.136719 Z "/>
</g>
</g>
</defs>
<g fill="rgb(100%, 100%, 100%)" fill-opacity="1">
<use xlink:href="#glyph-0-0" x="30" y="23.56543"/>
</g>
</svg>
