<?xml version="1.0" encoding="UTF-8"?>
<svg xmlns="http://www.w3.org/2000/svg" xmlns:xlink="http://www.w3.org/1999/xlink" width="1920" height="1080" viewBox="0 0 1920 1080">
<defs>
<g>
<g id="glyph-0-0">
<path d="M 4.386719 -4.410156 C 4.609375 -4.179688 4.78125 -3.902344 4.90625 -3.578125 C 5.03125 -3.253906 5.09375 -2.890625 5.09375 -2.496094 C 5.09375 -2.183594 5.050781 -1.890625 4.96875 -1.621094 C 4.886719 -1.355469 4.769531 -1.113281 4.621094 -0.902344 C 4.476562 -0.699219 4.304688 -0.523438 4.109375 -0.375 C 3.910156 -0.222656 3.691406 -0.105469 3.445312 -0.0195312 C 3.449219 0.242188 3.542969 0.472656 3.722656 0.679688 C 3.90625 0.882812 4.101562 0.988281 4.308594 0.988281 C 4.503906 0.988281 4.648438 0.980469 4.75 0.96875 C 4.851562 0.957031 4.933594 0.941406 5 0.929688 L 5 1.210938 C 4.894531 1.238281 4.761719 1.273438 4.605469 1.304688 C 4.445312 1.339844 4.226562 1.359375 3.941406 1.359375 C 3.785156 1.359375 3.632812 1.335938 3.480469 1.289062 C 3.332031 1.242188 3.195312 1.167969 3.070312 1.070312 C 2.949219 0.96875 2.847656 0.839844 2.765625 0.683594 C 2.6875 0.527344 2.632812 0.339844 2.609375 0.113281 C 2.273438 0.101562 1.960938 0.0273438 1.675781 -0.105469 C 1.386719 -0.238281 1.144531 -0.417969 0.9375 -0.648438 C 0.730469 -0.882812 0.570312 -1.15625 0.453125 -1.46875 C 0.339844 -1.78125 0.28125 -2.125 0.28125 -2.496094 C 0.28125 -2.902344 0.34375 -3.265625 0.472656 -3.585938 C 0.597656 -3.902344 0.773438 -4.179688 1 -4.410156 C 1.21875 -4.640625 1.476562 -4.820312 1.769531 -4.941406 C 2.0625 -5.0625 2.367188 -5.125 2.6875 -5.125 C 3.019531 -5.125 3.332031 -5.0625 3.625 -4.9375 C 3.917969 -4.8125 4.171875 -4.636719 4.386719 -4.410156 M 3.863281 -0.863281 C 3.992188 -1.078125 4.089844 -1.320312 4.148438 -1.589844 C 4.210938 -1.859375 4.238281 -2.164062 4.238281 -2.496094 C 4.238281 -2.839844 4.207031 -3.15625 4.136719 -3.441406 C 4.070312 -3.730469 3.972656 -3.972656 3.84375 -4.175781 C 3.714844 -4.375 3.550781 -4.53125 3.355469 -4.644531 C 3.164062 -4.753906 2.9375 -4.808594 2.6875 -4.808594 C 2.40625 -4.808594 2.164062 -4.746094 1.96875 -4.617188 C 1.769531 -4.488281 1.609375 -4.3125 1.484375 -4.097656 C 1.367188 -3.890625 1.28125 -3.648438 1.222656 -3.371094 C 1.164062 -3.09375 1.136719 -2.800781 1.136719 -2.496094 C 1.136719 -2.160156 1.167969 -1.851562 1.226562 -1.578125 C 1.289062 -1.308594 1.386719 -1.066406 1.515625 -0.851562 C 1.644531 -0.648438 1.804688 -0.484375 1.996094 -0.367188 C 2.1875 -0.253906 2.417969 -0.195312 2.6875 -0.195312 C 2.9375 -0.195312 3.164062 -0.253906 3.367188 -0.371094 C 3.570312 -0.488281 3.734375 -0.652344 3.863281 -0.863281 Z "/>
</g>
<g id="glyph-1-0">
<path d="M 1.917969 -1.324219 C 1.9375 -1.175781 1.984375 -0.929688 2.058594 -0.59375 L 1.523438 -0.59375 C 1.597656 -0.894531 1.636719 -1.136719 1.636719 -1.324219 L 1.664062 -1.890625 C 1.664062 -1.964844 1.644531 -1.964844 1.609375 -1.890625 C 1.550781 -1.738281 1.476562 -1.617188 1.382812 -1.523438 C 1.25 -1.335938 1.0625 -1.242188 0.816406 -1.242188 C 0.59375 -1.242188 0.414062 -1.324219 0.28125 -1.496094 C 0.152344 -1.644531 0.0859375 -1.832031 0.0859375 -2.058594 C 0.0859375 -2.339844 0.152344 -2.578125 0.28125 -2.765625 C 0.433594 -2.898438 0.609375 -2.960938 0.816406 -2.960938 C 1.007812 -2.960938 1.183594 -2.898438 1.355469 -2.765625 C 1.46875 -2.746094 1.484375 -2.785156 1.410156 -2.878906 C 1.148438 -3.046875 1.015625 -3.320312 1.015625 -3.695312 C 1.015625 -3.941406 1.082031 -4.148438 1.214844 -4.316406 C 1.382812 -4.449219 1.570312 -4.515625 1.777344 -4.515625 C 2.023438 -4.515625 2.199219 -4.449219 2.3125 -4.316406 C 2.484375 -4.148438 2.566406 -3.929688 2.566406 -3.667969 C 2.566406 -3.347656 2.4375 -3.085938 2.171875 -2.878906 C 2.117188 -2.785156 2.136719 -2.746094 2.230469 -2.765625 C 2.398438 -2.898438 2.578125 -2.960938 2.765625 -2.960938 C 2.953125 -2.960938 3.113281 -2.898438 3.246094 -2.765625 C 3.433594 -2.578125 3.527344 -2.339844 3.527344 -2.058594 C 3.527344 -1.832031 3.441406 -1.644531 3.273438 -1.496094 C 3.140625 -1.324219 2.972656 -1.242188 2.765625 -1.242188 C 2.539062 -1.242188 2.339844 -1.335938 2.171875 -1.523438 C 2.097656 -1.617188 2.023438 -1.738281 1.945312 -1.890625 C 1.910156 -1.964844 1.890625 -1.964844 1.890625 -1.890625 Z "/>
</g>
</g>
</defs>
<g fill="rgb(100%, 100%, 100%)" fill-opacity="1">
<use xlink:href="#glyph-0-0" x="30" y="26.623047"/>
</g>
<g fill="rgb(100%, 100%, 100%)" fill-opacity="1">
<use xlink:href="#glyph-1-0" x="35" y="26.623047"/>
</g>
</svg>
