<?xml version="1.0" encoding="UTF-8"?>
<svg xmlns="http://www.w3.org/2000/svg" xmlns:xlink="http://www.w3.org/1999/xlink" width="1920" height="1080" viewBox="0 0 1920 1080">
<defs>
<g>
<g id="glyph-0-0">
<path d="M 1.695312 -1.003906 C 1.742188 -0.667969 1.78125 -0.460938 1.8125 -0.382812 L 1.242188 -0.382812 C 1.289062 -0.492188 1.328125 -0.699219 1.359375 -1.003906 L 1.410156 -1.457031 C 1.410156 -1.488281 1.390625 -1.496094 1.359375 -1.480469 C 1.296875 -1.351562 1.21875 -1.25 1.121094 -1.167969 C 1.027344 -1.058594 0.867188 -1.003906 0.644531 -1.003906 C 0.5 -1.003906 0.382812 -1.058594 0.285156 -1.167969 C 0.160156 -1.28125 0.09375 -1.449219 0.09375 -1.671875 C 0.09375 -1.941406 0.351562 -2.425781 0.859375 -3.125 L 1.527344 -3.984375 L 2.195312 -3.125 C 2.707031 -2.492188 2.960938 -2.003906 2.960938 -1.671875 C 2.960938 -1.449219 2.894531 -1.28125 2.769531 -1.167969 C 2.65625 -1.058594 2.53125 -1.003906 2.386719 -1.003906 C 2.179688 -1.003906 2.011719 -1.058594 1.886719 -1.167969 C 1.757812 -1.28125 1.695312 -1.382812 1.695312 -1.480469 C 1.648438 -1.496094 1.625 -1.488281 1.625 -1.457031 Z "/>
</g>
<g id="glyph-1-0">
<path d="M 1.363281 -2.546875 C 1.363281 -2.4375 1.324219 -2.339844 1.242188 -2.261719 C 1.164062 -2.183594 1.066406 -2.140625 0.953125 -2.140625 C 0.84375 -2.140625 0.746094 -2.183594 0.667969 -2.261719 C 0.585938 -2.339844 0.546875 -2.4375 0.546875 -2.546875 C 0.546875 -2.65625 0.585938 -2.753906 0.664062 -2.832031 C 0.746094 -2.914062 0.839844 -2.953125 0.953125 -2.953125 C 1.066406 -2.953125 1.164062 -2.914062 1.246094 -2.832031 C 1.324219 -2.753906 1.363281 -2.65625 1.363281 -2.546875 M 1.363281 -0.34375 C 1.363281 -0.230469 1.324219 -0.136719 1.242188 -0.0585938 C 1.164062 0.0195312 1.066406 0.0585938 0.953125 0.0585938 C 0.84375 0.0585938 0.746094 0.0195312 0.667969 -0.0585938 C 0.585938 -0.136719 0.546875 -0.230469 0.546875 -0.34375 C 0.546875 -0.453125 0.585938 -0.550781 0.667969 -0.632812 C 0.746094 -0.710938 0.84375 -0.75 0.953125 -0.75 C 1.066406 -0.75 1.164062 -0.710938 1.242188 -0.632812 C 1.324219 -0.550781 1.363281 -0.453125 1.363281 -0.34375 Z "/>
</g>
<g id="glyph-1-1">
</g>
<g id="glyph-1-2">
<path d="M 3.710938 -3.734375 C 3.898438 -3.539062 4.046875 -3.300781 4.148438 -3.027344 C 4.253906 -2.75 4.308594 -2.445312 4.308594 -2.113281 C 4.308594 -1.847656 4.273438 -1.597656 4.203125 -1.371094 C 4.132812 -1.144531 4.035156 -0.941406 3.910156 -0.765625 C 3.789062 -0.59375 3.644531 -0.445312 3.476562 -0.316406 C 3.308594 -0.1875 3.121094 -0.0898438 2.914062 -0.015625 C 2.917969 0.203125 2.996094 0.398438 3.152344 0.574219 C 3.304688 0.75 3.46875 0.835938 3.644531 0.835938 C 3.808594 0.835938 3.933594 0.828125 4.019531 0.820312 C 4.105469 0.808594 4.175781 0.796875 4.230469 0.789062 L 4.230469 1.023438 C 4.140625 1.050781 4.03125 1.078125 3.894531 1.105469 C 3.761719 1.132812 3.574219 1.148438 3.335938 1.148438 C 3.203125 1.148438 3.070312 1.128906 2.945312 1.089844 C 2.816406 1.050781 2.703125 0.988281 2.597656 0.902344 C 2.496094 0.820312 2.410156 0.710938 2.339844 0.578125 C 2.273438 0.449219 2.226562 0.285156 2.207031 0.09375 C 1.921875 0.0859375 1.660156 0.0234375 1.417969 -0.0898438 C 1.175781 -0.199219 0.964844 -0.355469 0.792969 -0.550781 C 0.617188 -0.746094 0.480469 -0.976562 0.386719 -1.242188 C 0.289062 -1.507812 0.238281 -1.796875 0.238281 -2.113281 C 0.238281 -2.457031 0.292969 -2.761719 0.398438 -3.03125 C 0.507812 -3.300781 0.65625 -3.535156 0.84375 -3.734375 C 1.03125 -3.925781 1.25 -4.078125 1.496094 -4.179688 C 1.742188 -4.285156 2.003906 -4.335938 2.273438 -4.335938 C 2.554688 -4.335938 2.820312 -4.28125 3.066406 -4.175781 C 3.316406 -4.070312 3.53125 -3.921875 3.710938 -3.734375 M 3.265625 -0.730469 C 3.378906 -0.910156 3.460938 -1.117188 3.511719 -1.34375 C 3.5625 -1.574219 3.585938 -1.828125 3.585938 -2.113281 C 3.585938 -2.402344 3.558594 -2.667969 3.5 -2.914062 C 3.445312 -3.15625 3.363281 -3.363281 3.253906 -3.53125 C 3.144531 -3.703125 3.003906 -3.832031 2.839844 -3.929688 C 2.675781 -4.023438 2.488281 -4.070312 2.273438 -4.070312 C 2.035156 -4.070312 1.832031 -4.015625 1.664062 -3.90625 C 1.496094 -3.796875 1.363281 -3.648438 1.257812 -3.46875 C 1.15625 -3.292969 1.082031 -3.085938 1.035156 -2.851562 C 0.984375 -2.617188 0.960938 -2.371094 0.960938 -2.113281 C 0.960938 -1.824219 0.988281 -1.566406 1.039062 -1.335938 C 1.089844 -1.105469 1.171875 -0.902344 1.28125 -0.722656 C 1.390625 -0.546875 1.527344 -0.410156 1.6875 -0.3125 C 1.851562 -0.214844 2.046875 -0.164062 2.273438 -0.164062 C 2.488281 -0.164062 2.679688 -0.214844 2.847656 -0.3125 C 3.019531 -0.414062 3.160156 -0.550781 3.265625 -0.730469 Z "/>
</g>
<g id="glyph-1-3">
<path d="M 1.28125 -0.105469 C 1.28125 0.0390625 1.246094 0.175781 1.183594 0.300781 C 1.117188 0.429688 1.042969 0.539062 0.960938 0.628906 C 0.875 0.726562 0.785156 0.808594 0.6875 0.882812 C 0.59375 0.957031 0.507812 1.015625 0.425781 1.054688 L 0.289062 0.855469 C 0.386719 0.796875 0.46875 0.738281 0.546875 0.675781 C 0.621094 0.617188 0.683594 0.558594 0.730469 0.5 C 0.789062 0.429688 0.839844 0.351562 0.882812 0.273438 C 0.925781 0.191406 0.953125 0.0976562 0.964844 -0.0078125 L 0.8125 -0.0078125 C 0.679688 -0.0078125 0.574219 -0.0390625 0.5 -0.109375 C 0.425781 -0.179688 0.386719 -0.273438 0.386719 -0.390625 C 0.386719 -0.472656 0.421875 -0.554688 0.488281 -0.632812 C 0.558594 -0.710938 0.648438 -0.75 0.765625 -0.75 C 0.9375 -0.75 1.066406 -0.695312 1.152344 -0.582031 C 1.238281 -0.464844 1.28125 -0.308594 1.28125 -0.105469 Z "/>
</g>
<g id="glyph-1-4">
<path d="M 3.332031 -1.121094 C 3.332031 -0.789062 3.1875 -0.5 2.898438 -0.257812 C 2.613281 -0.0195312 2.234375 0.101562 1.761719 0.101562 C 1.324219 0.101562 0.972656 -0.0078125 0.707031 -0.230469 C 0.441406 -0.449219 0.308594 -0.734375 0.308594 -1.082031 C 0.308594 -1.339844 0.386719 -1.554688 0.542969 -1.726562 C 0.699219 -1.898438 0.933594 -2.042969 1.238281 -2.164062 C 0.984375 -2.304688 0.796875 -2.460938 0.671875 -2.628906 C 0.546875 -2.796875 0.484375 -2.988281 0.484375 -3.203125 C 0.484375 -3.527344 0.621094 -3.796875 0.898438 -4.015625 C 1.171875 -4.234375 1.5 -4.34375 1.886719 -4.34375 C 2.269531 -4.34375 2.582031 -4.242188 2.816406 -4.035156 C 3.054688 -3.828125 3.175781 -3.566406 3.175781 -3.253906 C 3.175781 -3.054688 3.109375 -2.863281 2.976562 -2.683594 C 2.847656 -2.503906 2.652344 -2.355469 2.398438 -2.242188 C 2.730469 -2.097656 2.96875 -1.945312 3.113281 -1.773438 C 3.257812 -1.601562 3.332031 -1.382812 3.332031 -1.121094 M 2.609375 -3.289062 C 2.609375 -3.53125 2.539062 -3.726562 2.394531 -3.878906 C 2.25 -4.03125 2.066406 -4.109375 1.839844 -4.109375 C 1.617188 -4.109375 1.433594 -4.035156 1.289062 -3.890625 C 1.144531 -3.742188 1.074219 -3.5625 1.074219 -3.34375 C 1.074219 -3.136719 1.15625 -2.957031 1.320312 -2.8125 C 1.480469 -2.667969 1.773438 -2.511719 2.191406 -2.347656 C 2.339844 -2.445312 2.445312 -2.570312 2.511719 -2.726562 C 2.578125 -2.882812 2.609375 -3.070312 2.609375 -3.289062 M 2.734375 -0.980469 C 2.734375 -1.105469 2.710938 -1.21875 2.65625 -1.3125 C 2.601562 -1.40625 2.523438 -1.492188 2.421875 -1.570312 C 2.324219 -1.644531 2.191406 -1.722656 2.015625 -1.808594 C 1.839844 -1.890625 1.652344 -1.972656 1.449219 -2.058594 C 1.257812 -1.957031 1.117188 -1.824219 1.03125 -1.664062 C 0.941406 -1.503906 0.894531 -1.320312 0.894531 -1.117188 C 0.894531 -0.824219 0.980469 -0.585938 1.152344 -0.40625 C 1.324219 -0.226562 1.554688 -0.136719 1.839844 -0.136719 C 2.117188 -0.136719 2.332031 -0.21875 2.496094 -0.375 C 2.65625 -0.535156 2.734375 -0.738281 2.734375 -0.980469 Z "/>
</g>
<g id="glyph-1-5">
<path d="M 3.234375 -0.269531 L 2.628906 -0.269531 L 2.628906 1.089844 L 2.054688 1.089844 L 2.054688 -0.269531 L 0.144531 -0.269531 L 0.144531 -0.726562 L 2.238281 -3.277344 L 2.628906 -3.277344 L 2.628906 -0.660156 L 3.234375 -0.660156 L 3.234375 -0.269531 M 2.054688 -0.660156 L 2.054688 -2.613281 L 0.441406 -0.660156 Z "/>
</g>
</g>
</defs>
<g fill="rgb(100%, 100%, 100%)" fill-opacity="1">
<use xlink:href="#glyph-0-0" x="30" y="25.603516"/>
</g>
<g fill="rgb(100%, 100%, 100%)" fill-opacity="1">
<use xlink:href="#glyph-1-0" x="33" y="25.603516"/>
<use xlink:href="#glyph-1-1" x="35" y="25.603516"/>
<use xlink:href="#glyph-1-2" x="36" y="25.603516"/>
<use xlink:href="#glyph-1-3" x="41" y="25.603516"/>
<use xlink:href="#glyph-1-1" x="43" y="25.603516"/>
<use xlink:href="#glyph-1-4" x="44" y="25.603516"/>
<use xlink:href="#glyph-1-3" x="48" y="25.603516"/>
<use xlink:href="#glyph-1-1" x="50" y="25.603516"/>
<use xlink:href="#glyph-1-5" x="51" y="25.603516"/>
</g>
</svg>
